:SAMPLES-PER-SECOND 30
:FULLY-SPECIFIED
:DEGREES
263
root  -10.9471 34.5317 -8.89219 -162.507 4.16916 -179.977
RightUpLeg  -24.2593 -15.1428 0.833314
RightLeg  11.9245 -4.55812 -0.658133
RightFoot  5.82224 0.0427332 -0.297093
RightToes  -27.4772 -0.119271 -0.227507
Spine  2.11262 0.666253 0.443848
Spine1  4.16162 1.58699 1.1988
HEad  -29.2917 -1.58065 -3.66887
LeftShoulder1  -1.94126e-019 -3.10601e-018 -2.51263e-017
LeftArm  -10.4306 13.0462 -79.4218
LeftForeArm  23.8427 -30.5847 -5.31894
LeftHand  -0.340756 0.402015 7.95635
RightShoulder  -4.96962e-017 0 -2.36833e-017
RightArm  -22.3869 -14.6082 72.8068
RightForeArm  45.726 20.6476 2.09462
RightHand  -0.178953 -4.21304 -16.565
LeftUpLeg  -26.4451 3.22364 2.73704
LeftLeg  14.6516 11.782 2.26445
LeftFoot  6.92103 -0.0868177 1.59717
LeftToes  -26.2547 2.14545e-006 -7.7278e-009
264
root  -10.8659 34.5792 -9.48965 -164.391 4.03996 179.953
RightUpLeg  -20.704 -14.9988 0.0398536
RightLeg  10.8107 -4.91804 -0.612616
RightFoot  5.61092 0.0425861 -0.312708
RightToes  -27.2122 -0.1195 -0.228003
Spine  1.44813 0.590173 0.428807
Spine1  2.83963 1.40036 1.23863
HEad  -33.2087 -0.702233 -3.03603
LeftShoulder1  -1.94126e-019 -3.10601e-018 -2.51263e-017
LeftArm  -10.6891 14.9703 -79.2992
LeftForeArm  24.1422 -31.3831 -5.49633
LeftHand  -0.324584 0.5104 7.7349
RightShoulder  -4.96962e-017 0 -2.36833e-017
RightArm  -22.4114 -16.2682 72.7148
RightForeArm  45.6197 20.6781 2.10495
RightHand  -0.180438 -4.19356 -16.4362
LeftUpLeg  -23.1487 2.45485 2.99567
LeftLeg  13.7715 12.3883 2.18427
LeftFoot  6.59283 -0.081731 1.59818
LeftToes  -25.5824 2.14545e-006 -7.7278e-009
265
root  -10.7857 34.6051 -10.0538 -166.151 3.85992 179.871
RightUpLeg  -17.4325 -14.8989 -0.68833
RightLeg  9.90341 -5.27723 -0.572576
RightFoot  5.27357 0.0417536 -0.314019
RightToes  -26.9383 -0.119735 -0.228501
Spine  0.874106 0.533915 0.411113
Spine1  1.69266 1.27028 1.24236
HEad  -37.0741 0.249189 -2.39704
LeftShoulder1  -1.94126e-019 -3.10601e-018 -2.51263e-017
LeftArm  -10.3565 16.6084 -79.0465
LeftForeArm  23.9206 -32.037 -5.67026
LeftHand  -0.335689 0.553881 8.06875
RightShoulder  -4.96962e-017 0 -2.36833e-017
RightArm  -22.633 -17.8943 72.7184
RightForeArm  45.7415 20.8895 2.13899
RightHand  -0.18989 -4.12933 -16.4859
LeftUpLeg  -20.1452 1.44467 3.21407
LeftLeg  13.1128 13.1893 2.16864
LeftFoot  6.19728 -0.0778028 1.5987
LeftToes  -25.0048 2.14545e-006 -7.7278e-009
266
root  -10.7081 34.6173 -10.5764 -167.739 3.6599 179.773
RightUpLeg  -14.5157 -14.9228 -1.33731
RightLeg  9.19061 -5.49761 -0.527374
RightFoot  4.88274 0.0394433 -0.294366
RightToes  -26.8788 -0.119975 -0.228995
Spine  0.38621 0.481146 0.388523
Spine1  0.714831 1.15305 1.22487
HEad  -40.6321 1.37737 -1.74925
LeftShoulder1  -1.94126e-019 -3.10601e-018 -2.51263e-017
LeftArm  -10.2472 17.9497 -78.8847
LeftForeArm  23.9236 -32.3156 -5.73936
LeftHand  -0.306099 0.721159 7.59919
RightShoulder  -4.96962e-017 0 -2.36833e-017
RightArm  -22.7662 -19.121 72.822
RightForeArm  45.9428 20.8159 2.11645
RightHand  -0.207628 -4.0062 -16.5338
LeftUpLeg  -17.4241 0.659366 3.3073
LeftLeg  12.5028 13.7334 2.10815
LeftFoot  5.81888 -0.0739892 1.56458
LeftToes  -24.5392 2.14545e-006 -7.7278e-009
267
root  -10.635 34.6219 -11.061 -169.196 3.35844 179.673
RightUpLeg  -11.8254 -14.9942 -1.93635
RightLeg  8.57677 -5.71388 -0.486422
RightFoot  4.52072 0.0370924 -0.274241
RightToes  -26.9456 -0.12022 -0.22948
Spine  0.00420642 0.416432 0.356036
Spine1  -0.0522465 1.01419 1.18142
HEad  -43.8629 2.36059 -1.01195
LeftShoulder1  -1.94126e-019 -3.10601e-018 -2.51263e-017
LeftArm  -10.0146 18.8383 -78.8154
LeftForeArm  24.0451 -32.0583 -5.66935
LeftHand  -0.33566 0.568107 8.09045
RightShoulder  -4.96962e-017 0 -2.36833e-017
RightArm  -22.7116 -19.9951 73.0578
RightForeArm  46.1305 20.5127 2.05187
RightHand  -0.231392 -3.65693 -14.7963
LeftUpLeg  -14.8679 -0.00505843 3.33569
LeftLeg  11.7693 14.0815 1.97846
LeftFoot  5.56733 -0.0713826 1.53513
LeftToes  -24.1618 2.14545e-006 -7.7278e-009
268
root  -10.5727 34.6207 -11.4878 -170.378 3.08228 179.551
RightUpLeg  -9.66108 -15.2014 -2.47487
RightLeg  8.22928 -5.75599 -0.454901
RightFoot  4.11118 0.0333636 -0.234472
RightToes  -26.8421 -0.120466 -0.22995
Spine  -0.36671 0.37116 0.31229
Spine1  -0.797258 0.917769 1.11119
HEad  -46.6162 3.01743 -0.134351
LeftShoulder1  -1.94126e-019 -3.10601e-018 -2.51263e-017
LeftArm  -9.52958 19.4849 -78.7545
LeftForeArm  24.2184 -31.4148 -5.50306
LeftHand  -0.329383 0.614233 8.01027
RightShoulder  -4.96962e-017 0 -2.36833e-017
RightArm  -23.0076 -20.6638 73.4625
RightForeArm  46.7611 20.0284 1.93497
RightHand  -0.245867 -3.53082 -14.7173
LeftUpLeg  -12.6365 -0.446692 3.28918
LeftLeg  10.9397 14.233 1.79198
LeftFoot  5.41479 -0.0696846 1.50859
LeftToes  -23.8591 2.14545e-006 -7.7278e-009
269
root  -10.5231 34.6139 -11.8486 -171.213 2.91293 179.406
RightUpLeg  -8.13217 -15.1646 -2.9456
RightLeg  8.18992 -5.93292 -0.464753
RightFoot  3.64761 0.0297521 -0.196381
RightToes  -26.7515 -0.120713 -0.2304
Spine  -0.783908 0.386655 0.246519
Spine1  -1.63538 0.945465 0.99404
HEad  -48.8399 3.39787 0.719874
LeftShoulder1  -1.94126e-019 -3.10601e-018 -2.51263e-017
LeftArm  -9.1955 20.0009 -78.7964
LeftForeArm  24.7865 -30.3567 -5.21833
LeftHand  -0.34261 0.430882 8.04358
RightShoulder  -4.96962e-017 0 -2.36833e-017
RightArm  -23.146 -21.3948 73.9583
RightForeArm  47.1921 19.5845 1.83481
RightHand  -0.250556 -3.48745 -14.6747
LeftUpLeg  -10.7805 -0.671723 3.18161
LeftLeg  9.9822 14.2982 1.56054
LeftFoot  5.37195 -0.0697382 1.5009
LeftToes  -23.7811 2.14545e-006 -7.7278e-009
